<svg xmlns="http://www.w3.org/2000/svg" viewBox="0 0 200 60" fill="none">
  <rect x="10" y="20" width="8" height="20" rx="4" fill="#6366f1"/>
  <rect x="26" y="8" width="8" height="44" rx="4" fill="#818cf8"/>
  <rect x="42" y="3" width="8" height="54" rx="4" fill="#6366f1"/>
  <rect x="58" y="14" width="8" height="32" rx="4" fill="#818cf8"/>
  <rect x="74" y="0" width="8" height="60" rx="4" fill="#6366f1"/>
  <rect x="90" y="10" width="8" height="40" rx="4" fill="#818cf8"/>
  <rect x="106" y="5" width="8" height="50" rx="4" fill="#6366f1"/>
  <rect x="122" y="16" width="8" height="28" rx="4" fill="#818cf8"/>
  <rect x="138" y="3" width="8" height="54" rx="4" fill="#6366f1"/>
  <rect x="154" y="12" width="8" height="36" rx="4" fill="#818cf8"/>
  <rect x="170" y="20" width="8" height="20" rx="4" fill="#6366f1"/>
  <rect x="186" y="8" width="8" height="44" rx="4" fill="#818cf8"/>
</svg>
